<?xml version="1.0" encoding="UTF-8" standalone="no"?>
<!-- Created with Inkscape (http://www.inkscape.org/) -->

<svg
   xmlns:dc="http://purl.org/dc/elements/1.1/"
   xmlns:cc="http://creativecommons.org/ns#"
   xmlns:rdf="http://www.w3.org/1999/02/22-rdf-syntax-ns#"
   xmlns:svg="http://www.w3.org/2000/svg"
   xmlns="http://www.w3.org/2000/svg"
   xmlns:sodipodi="http://sodipodi.sourceforge.net/DTD/sodipodi-0.dtd"
   xmlns:inkscape="http://www.inkscape.org/namespaces/inkscape"
   width="1920"
   height="600"
   viewBox="0 0 1920 600"
   version="1.1"
   id="svg8"
   inkscape:version="0.92.5 (2060ec1f9f, 2020-04-08)"
   sodipodi:docname="dcreative-open-source.svg">
  <defs
     id="defs2" />
  <sodipodi:namedview
     id="base"
     pagecolor="#1b302f"
     bordercolor="#666666"
     borderopacity="1.0"
     inkscape:pageopacity="1"
     inkscape:pageshadow="2"
     inkscape:zoom="0.70369816"
     inkscape:cx="1203.1826"
     inkscape:cy="362.53552"
     inkscape:document-units="px"
     inkscape:current-layer="layer1"
     showgrid="false"
     units="px"
     inkscape:window-width="1920"
     inkscape:window-height="1052"
     inkscape:window-x="0"
     inkscape:window-y="0"
     inkscape:window-maximized="1"
     inkscape:snap-bbox="true"
     inkscape:bbox-paths="true"
     inkscape:snap-page="true"
     inkscape:snap-global="false"
     showguides="true"
     inkscape:guide-bbox="true" />
  <metadata
     id="metadata5">
    <rdf:RDF>
      <cc:Work
         rdf:about="">
        <dc:format>image/svg+xml</dc:format>
        <dc:type
           rdf:resource="http://purl.org/dc/dcmitype/StillImage" />
        <dc:title />
      </cc:Work>
    </rdf:RDF>
  </metadata>
  <g
     inkscape:label="Layer 1"
     inkscape:groupmode="layer"
     id="layer1"
     transform="translate(0,-491.24998)">
    <path
       style="opacity:1;vector-effect:none;fill:#1b302f;fill-opacity:1;stroke:none;stroke-width:0.75797957;stroke-linecap:butt;stroke-linejoin:miter;stroke-miterlimit:4;stroke-dasharray:none;stroke-dashoffset:0;stroke-opacity:1;paint-order:normal"
       d="M 0,491.24996 H 1920 V 1091.25 H 0 Z"
       id="rect251"
       inkscape:connector-curvature="0" />
    <g
       id="g1286"
       transform="matrix(0.74482734,0,0,0.74482734,581.33895,277.86958)">
      <g
         transform="matrix(6.6709388,0,0,6.6709388,-1351.5676,-1101.0162)"
         id="g242">
        <path
           inkscape:connector-curvature="0"
           id="path151"
           style="font-style:normal;font-variant:normal;font-weight:bold;font-stretch:normal;font-size:24.18297195px;line-height:1.25;font-family:'Magdelin Alt';-inkscape-font-specification:'Magdelin Alt Bold';font-variant-ligatures:normal;font-variant-caps:normal;font-variant-numeric:normal;font-feature-settings:normal;text-align:center;letter-spacing:0px;word-spacing:0px;writing-mode:lr-tb;text-anchor:middle;fill:#fe5f55;fill-opacity:1;stroke:none;stroke-width:1.00762379"
           d="m 307.89562,257.79064 h -6.36013 v 16.92808 h 6.36013 c 4.54639,0 7.56927,-3.36143 7.56927,-8.46404 0,-5.10261 -3.02288,-8.46404 -7.56927,-8.46404 z m -0.19347,13.88103 h -2.92614 v -10.83398 h 2.92614 c 2.70849,0 4.49803,2.15229 4.49803,5.41699 0,3.2647 -1.78954,5.41699 -4.49803,5.41699 z" />
        <path
           inkscape:connector-curvature="0"
           id="path153"
           style="font-style:normal;font-variant:normal;font-weight:bold;font-stretch:normal;font-size:24.18297195px;line-height:1.25;font-family:'Magdelin Alt';-inkscape-font-specification:'Magdelin Alt Bold';font-variant-ligatures:normal;font-variant-caps:normal;font-variant-numeric:normal;font-feature-settings:normal;text-align:center;letter-spacing:-0.00264583px;word-spacing:0px;writing-mode:lr-tb;text-anchor:middle;fill:#efede6;fill-opacity:1;stroke:none;stroke-width:1.00762379"
           d="m 319.45889,279.50838 10.30195,-22.90127 -2.66013,-1.11242 -10.30194,22.90127 z" />
        <g
           id="g229">
          <path
             d="m 335.66182,275.00892 c 2.29738,0 3.96601,-1.20915 4.61895,-3.14379 l -2.85359,-0.87059 c -0.2902,0.77386 -0.91895,1.23333 -1.76536,1.23333 -1.20915,0 -2.00718,-1.03986 -2.00718,-2.58757 0,-1.54771 0.79803,-2.58758 2.00718,-2.58758 0.82222,0 1.4268,0.45947 1.71699,1.23333 l 2.85359,-0.87059 c -0.65294,-1.93464 -2.29738,-3.14378 -4.57058,-3.14378 -3.02287,0 -5.00587,2.1281 -5.00587,5.36862 0,3.24051 1.983,5.36862 5.00587,5.36862 z"
             style="font-style:normal;font-variant:normal;font-weight:bold;font-stretch:normal;font-size:24.18297195px;line-height:1.25;font-family:'Magdelin Alt';-inkscape-font-specification:'Magdelin Alt Bold';font-variant-ligatures:normal;font-variant-caps:normal;font-variant-numeric:normal;font-feature-settings:normal;text-align:center;letter-spacing:0px;word-spacing:0px;writing-mode:lr-tb;text-anchor:middle;fill:#fe5f55;fill-opacity:1;stroke:none;stroke-width:1.00762379"
             id="path155"
             inkscape:connector-curvature="0" />
          <path
             d="m 347.9037,264.29586 c -1.16079,0 -2.22484,0.67712 -3.02288,1.91045 l -0.41111,-1.64444 h -2.32156 v 10.15685 h 2.95032 v -5.73136 c 0.58039,-0.94314 1.49934,-1.45098 2.49085,-1.45098 0.38692,0 0.74967,0.0242 0.94313,0.0967 l 0.0242,-3.24052 c -0.1451,-0.0484 -0.38693,-0.0967 -0.65294,-0.0967 z"
             style="font-style:normal;font-variant:normal;font-weight:bold;font-stretch:normal;font-size:24.18297195px;line-height:1.25;font-family:'Magdelin Alt';-inkscape-font-specification:'Magdelin Alt Bold';font-variant-ligatures:normal;font-variant-caps:normal;font-variant-numeric:normal;font-feature-settings:normal;text-align:center;letter-spacing:0px;word-spacing:0px;writing-mode:lr-tb;text-anchor:middle;fill:#fe5f55;fill-opacity:1;stroke:none;stroke-width:1.00762379"
             id="path157"
             inkscape:connector-curvature="0" />
          <path
             d="m 359.41328,269.54356 c 0,-3.19215 -1.86209,-5.27188 -4.76405,-5.27188 -2.9745,0 -5.00587,2.15228 -5.00587,5.34443 0,3.2647 2.05555,5.39281 5.34443,5.39281 1.74118,0 3.36144,-0.60458 4.23202,-1.4268 l -1.30588,-1.95882 c -0.62875,0.50784 -1.54771,0.8464 -2.63594,0.8464 -1.45098,0 -2.29738,-0.65294 -2.5634,-1.91045 h 6.69869 z m -4.76405,-2.73267 c 0.94314,0 1.59608,0.62875 1.81373,1.78954 h -3.74837 c 0.24183,-1.1366 0.94314,-1.78954 1.93464,-1.78954 z"
             style="font-style:normal;font-variant:normal;font-weight:bold;font-stretch:normal;font-size:24.18297195px;line-height:1.25;font-family:'Magdelin Alt';-inkscape-font-specification:'Magdelin Alt Bold';font-variant-ligatures:normal;font-variant-caps:normal;font-variant-numeric:normal;font-feature-settings:normal;text-align:center;letter-spacing:0px;word-spacing:0px;writing-mode:lr-tb;text-anchor:middle;fill:#fe5f55;fill-opacity:1;stroke:none;stroke-width:1.00762379"
             id="path159"
             inkscape:connector-curvature="0" />
          <path
             d="m 365.86522,264.27168 c -1.74117,0 -3.91764,0.67712 -4.8366,1.49934 l 1.20915,2.1281 c 0.84641,-0.60457 2.07974,-0.9915 2.99869,-0.9915 1.01569,0 1.54771,0.50784 1.54771,1.33006 v 0.31438 l -2.24901,0.21765 c -2.22484,0.19346 -3.72418,1.33006 -3.72418,3.24052 0,1.78954 1.33006,2.99869 3.19215,2.99869 1.23333,0 2.32157,-0.50785 3.07124,-1.35425 l 0.38693,1.06405 h 2.27319 v -6.91633 c 0,-2.1281 -1.33006,-3.53071 -3.86927,-3.53071 z m -0.96732,8.48822 c -0.72549,0 -1.23333,-0.33856 -1.23333,-0.91895 0,-0.70131 0.60457,-1.06405 1.66862,-1.16079 l 1.45098,-0.14509 v 1.33006 c -0.48366,0.58039 -1.18496,0.89477 -1.88627,0.89477 z"
             style="font-style:normal;font-variant:normal;font-weight:bold;font-stretch:normal;font-size:24.18297195px;line-height:1.25;font-family:'Magdelin Alt';-inkscape-font-specification:'Magdelin Alt Bold';font-variant-ligatures:normal;font-variant-caps:normal;font-variant-numeric:normal;font-feature-settings:normal;text-align:center;letter-spacing:0px;word-spacing:0px;writing-mode:lr-tb;text-anchor:middle;fill:#fe5f55;fill-opacity:1;stroke:none;stroke-width:1.00762379"
             id="path161"
             inkscape:connector-curvature="0" />
          <path
             d="m 378.45019,271.79258 c -0.45948,0.2902 -0.9915,0.43529 -1.4268,0.43529 -0.60457,0 -0.9915,-0.33856 -0.9915,-0.94313 v -4.18366 h 2.75686 v -2.53921 h -2.75686 v -3.89346 l -2.95032,0.58039 v 3.31307 h -1.66863 v 2.53921 h 1.66863 v 4.81241 c 0,1.93464 1.20915,3.09543 3.14379,3.09543 1.23333,0 2.53921,-0.41112 3.19215,-0.94314 z"
             style="font-style:normal;font-variant:normal;font-weight:bold;font-stretch:normal;font-size:24.18297195px;line-height:1.25;font-family:'Magdelin Alt';-inkscape-font-specification:'Magdelin Alt Bold';font-variant-ligatures:normal;font-variant-caps:normal;font-variant-numeric:normal;font-feature-settings:normal;text-align:center;letter-spacing:0px;word-spacing:0px;writing-mode:lr-tb;text-anchor:middle;fill:#fe5f55;fill-opacity:1;stroke:none;stroke-width:1.00762379"
             id="path163"
             inkscape:connector-curvature="0" />
          <path
             d="m 382.51973,262.36122 c 1.11242,0 1.83791,-0.70131 1.83791,-1.78954 0,-1.08823 -0.72549,-1.78954 -1.83791,-1.78954 -1.08823,0 -1.81372,0.70131 -1.81372,1.78954 0,1.08823 0.72549,1.78954 1.81372,1.78954 z m -1.47516,12.3575 h 2.95033 v -10.15685 h -2.95033 z"
             style="font-style:normal;font-variant:normal;font-weight:bold;font-stretch:normal;font-size:24.18297195px;line-height:1.25;font-family:'Magdelin Alt';-inkscape-font-specification:'Magdelin Alt Bold';font-variant-ligatures:normal;font-variant-caps:normal;font-variant-numeric:normal;font-feature-settings:normal;text-align:center;letter-spacing:0px;word-spacing:0px;writing-mode:lr-tb;text-anchor:middle;fill:#fe5f55;fill-opacity:1;stroke:none;stroke-width:1.00762379"
             id="path165"
             inkscape:connector-curvature="0" />
          <path
             d="m 392.82848,264.56187 -1.93464,6.91633 -1.983,-7.01306 -3.09542,0.48366 3.40979,9.76992 h 3.19216 l 3.55489,-10.15685 z"
             style="font-style:normal;font-variant:normal;font-weight:bold;font-stretch:normal;font-size:24.18297195px;line-height:1.25;font-family:'Magdelin Alt';-inkscape-font-specification:'Magdelin Alt Bold';font-variant-ligatures:normal;font-variant-caps:normal;font-variant-numeric:normal;font-feature-settings:normal;text-align:center;letter-spacing:0px;word-spacing:0px;writing-mode:lr-tb;text-anchor:middle;fill:#fe5f55;fill-opacity:1;stroke:none;stroke-width:1.00762379"
             id="path167-7"
             inkscape:connector-curvature="0" />
          <path
             d="m 406.45672,269.54356 c 0,-3.19215 -1.86209,-5.27188 -4.76405,-5.27188 -2.9745,0 -5.00587,2.15228 -5.00587,5.34443 0,3.2647 2.05555,5.39281 5.34444,5.39281 1.74117,0 3.36143,-0.60458 4.23202,-1.4268 l -1.30588,-1.95882 c -0.62876,0.50784 -1.54772,0.8464 -2.63595,0.8464 -1.45098,0 -2.29738,-0.65294 -2.56339,-1.91045 h 6.69868 z m -4.76405,-2.73267 c 0.94314,0 1.59608,0.62875 1.81373,1.78954 h -3.74836 c 0.24183,-1.1366 0.94313,-1.78954 1.93463,-1.78954 z"
             style="font-style:normal;font-variant:normal;font-weight:bold;font-stretch:normal;font-size:24.18297195px;line-height:1.25;font-family:'Magdelin Alt';-inkscape-font-specification:'Magdelin Alt Bold';font-variant-ligatures:normal;font-variant-caps:normal;font-variant-numeric:normal;font-feature-settings:normal;text-align:center;letter-spacing:0px;word-spacing:0px;writing-mode:lr-tb;text-anchor:middle;fill:#fe5f55;fill-opacity:1;stroke:none;stroke-width:1.00762379"
             id="path169-5"
             inkscape:connector-curvature="0" />
        </g>
      </g>
      <g
         aria-label="open source by"
         style="font-style:normal;font-variant:normal;font-weight:bold;font-stretch:normal;font-size:164.46212769px;line-height:1.25;font-family:'Magdelin Alt';-inkscape-font-specification:'Magdelin Alt Bold';font-variant-ligatures:normal;font-variant-caps:normal;font-variant-numeric:normal;font-feature-settings:normal;text-align:end;letter-spacing:0px;word-spacing:0px;writing-mode:lr-tb;text-anchor:end;fill:#fe5f55;fill-opacity:1;stroke:none;stroke-width:10.27888298"
         id="text1156">
        <path
           inkscape:connector-curvature="0"
           d="m -314.43165,734.03312 c 20.55777,0 34.04366,-14.47267 34.04366,-36.5106 0,-22.03792 -13.48589,-36.51059 -34.04366,-36.51059 -20.55777,0 -34.04366,14.47267 -34.04366,36.51059 0,22.03793 13.48589,36.5106 34.04366,36.5106 z m 0,-18.91315 c -8.22311,0 -13.65036,-7.07187 -13.65036,-17.59745 0,-10.52557 5.42725,-17.59744 13.65036,-17.59744 8.22311,0 13.65036,7.07187 13.65036,17.59744 0,10.52558 -5.42725,17.59745 -13.65036,17.59745 z"
           style="font-style:normal;font-variant:normal;font-weight:bold;font-stretch:normal;font-family:'Magdelin Alt';-inkscape-font-specification:'Magdelin Alt Bold';fill:#fe5f55;fill-opacity:1;stroke-width:10.27888298"
           id="path1288" />
        <path
           inkscape:connector-curvature="0"
           d="m -229.56922,661.01193 c -7.89418,0 -14.47267,3.28924 -19.40653,9.5388 l -2.6314,-7.56525 h -14.3082 v 111.83424 l 20.06438,-3.28924 v -39.9643 c 3.94709,1.48016 8.71649,2.46694 13.65035,2.46694 19.571,0 32.39904,-14.47267 32.39904,-36.34613 0,-22.20239 -12.66358,-36.67506 -29.76764,-36.67506 z m -6.0851,54.10804 c -3.61817,0 -7.56526,-1.15123 -10.19665,-2.96032 V 687.6548 c 2.63139,-4.76941 7.07187,-7.72972 11.84127,-7.72972 8.38757,0 13.81482,7.07187 13.81482,17.59744 0,10.52558 -6.0851,17.59745 -15.45944,17.59745 z"
           style="font-style:normal;font-variant:normal;font-weight:bold;font-stretch:normal;font-family:'Magdelin Alt';-inkscape-font-specification:'Magdelin Alt Bold';fill:#fe5f55;fill-opacity:1;stroke-width:10.27888298"
           id="path1290" />
        <path
           inkscape:connector-curvature="0"
           d="m -122.83351,696.86467 c 0,-21.709 -12.66359,-35.85274 -32.39904,-35.85274 -20.22885,0 -34.04366,14.63713 -34.04366,36.34613 0,22.20239 13.97928,36.67506 36.34613,36.67506 11.84127,0 22.86023,-4.11156 28.78087,-9.70327 l -8.88096,-13.32143 c -4.27601,3.4537 -10.52557,5.75617 -17.92637,5.75617 -9.86773,0 -15.6239,-4.44048 -17.43298,-12.99251 h 45.55601 z m -32.39904,-18.58422 c 6.41402,0 10.8545,4.27602 12.33466,12.1702 h -25.49163 c 1.64462,-7.72972 6.41402,-12.1702 13.15697,-12.1702 z"
           style="font-style:normal;font-variant:normal;font-weight:bold;font-stretch:normal;font-family:'Magdelin Alt';-inkscape-font-specification:'Magdelin Alt Bold';fill:#fe5f55;fill-opacity:1;stroke-width:10.27888298"
           id="path1292" />
        <path
           inkscape:connector-curvature="0"
           d="m -67.574535,661.01193 c -8.387569,0 -16.610675,3.94709 -23.024698,10.69004 l -2.30247,-8.71649 H -108.5256 v 69.07409 h 20.064375 v -44.24031 c 3.289242,-4.93387 8.223106,-7.89418 13.15697,-7.89418 5.591712,0 9.045417,3.4537 9.045417,9.04541 v 43.08908 h 20.06438 v -49.33864 c 0,-13.15697 -8.552031,-21.709 -21.380077,-21.709 z"
           style="font-style:normal;font-variant:normal;font-weight:bold;font-stretch:normal;font-family:'Magdelin Alt';-inkscape-font-specification:'Magdelin Alt Bold';fill:#fe5f55;fill-opacity:1;stroke-width:10.27888298"
           id="path1294" />
        <path
           inkscape:connector-curvature="0"
           d="m 30.773466,734.03312 c 17.597447,0 29.274258,-8.7165 29.274258,-23.18916 0,-26.31394 -37.661827,-19.89992 -37.661827,-29.1098 0,-2.96032 3.618167,-4.7694 9.374341,-4.7694 8.223107,0 15.788365,3.28924 18.913145,6.24956 l 7.400796,-13.97928 c -5.920637,-5.09833 -17.268524,-8.22311 -27.465175,-8.22311 -16.610675,0 -28.1230243,8.05865 -28.1230243,22.20239 0,25.98501 37.4973653,19.73545 37.4973653,29.60318 0,3.12478 -3.782629,5.26279 -10.361114,5.26279 -9.374342,0 -18.090834,-4.27602 -22.0379254,-8.71649 L 0.18350988,723.34308 C 6.9264571,729.92156 19.096655,734.03312 30.773466,734.03312 Z"
           style="font-style:normal;font-variant:normal;font-weight:bold;font-stretch:normal;font-family:'Magdelin Alt';-inkscape-font-specification:'Magdelin Alt Bold';fill:#fe5f55;fill-opacity:1;stroke-width:10.27888298"
           id="path1296" />
        <path
           inkscape:connector-curvature="0"
           d="m 102.80761,734.03312 c 20.55776,0 34.04366,-14.47267 34.04366,-36.5106 0,-22.03792 -13.4859,-36.51059 -34.04366,-36.51059 -20.557769,0 -34.043663,14.47267 -34.043663,36.51059 0,22.03793 13.485894,36.5106 34.043663,36.5106 z m 0,-18.91315 c -8.223109,0 -13.650359,-7.07187 -13.650359,-17.59745 0,-10.52557 5.42725,-17.59744 13.650359,-17.59744 8.2231,0 13.65035,7.07187 13.65035,17.59744 0,10.52558 -5.42725,17.59745 -13.65035,17.59745 z"
           style="font-style:normal;font-variant:normal;font-weight:bold;font-stretch:normal;font-family:'Magdelin Alt';-inkscape-font-specification:'Magdelin Alt Bold';fill:#fe5f55;fill-opacity:1;stroke-width:10.27888298"
           id="path1298" />
        <path
           inkscape:connector-curvature="0"
           d="m 191.78161,662.98548 v 44.56923 c -3.12478,4.60494 -7.89418,7.56526 -12.82804,7.56526 -5.26279,0 -8.7165,-3.28924 -8.7165,-8.71649 v -43.418 h -20.06438 v 49.83202 c 0,12.66359 8.38757,21.21562 21.21562,21.21562 8.38757,0 16.44621,-3.9471 22.53131,-10.36112 l 2.30247,8.38757 h 15.6239 v -69.07409 z"
           style="font-style:normal;font-variant:normal;font-weight:bold;font-stretch:normal;font-family:'Magdelin Alt';-inkscape-font-specification:'Magdelin Alt Bold';fill:#fe5f55;fill-opacity:1;stroke-width:10.27888298"
           id="path1300" />
        <path
           inkscape:connector-curvature="0"
           d="m 269.73639,661.17639 c -7.89418,0 -15.13051,4.60494 -20.55776,12.99251 l -2.79586,-11.18342 h -15.78836 v 69.07409 h 20.06438 v -38.97752 c 3.94709,-6.41403 10.19665,-9.86773 16.93959,-9.86773 2.6314,0 5.09833,0.16446 6.41403,0.65785 l 0.16446,-22.03793 c -0.98677,-0.32892 -2.63139,-0.65785 -4.44048,-0.65785 z"
           style="font-style:normal;font-variant:normal;font-weight:bold;font-stretch:normal;font-family:'Magdelin Alt';-inkscape-font-specification:'Magdelin Alt Bold';fill:#fe5f55;fill-opacity:1;stroke-width:10.27888298"
           id="path1302" />
        <path
           inkscape:connector-curvature="0"
           d="m 315.62108,734.03312 c 15.62391,0 26.97179,-8.22311 31.41227,-21.38008 l -19.40653,-5.92064 c -1.97355,5.26279 -6.24956,8.38757 -12.00574,8.38757 -8.2231,0 -13.65035,-7.07187 -13.65035,-17.59745 0,-10.52557 5.42725,-17.59744 13.65035,-17.59744 5.59172,0 9.70327,3.12478 11.67681,8.38756 l 19.40654,-5.92063 c -4.44048,-13.15697 -15.62391,-21.38008 -31.08335,-21.38008 -20.55776,0 -34.04366,14.47267 -34.04366,36.51059 0,22.03793 13.4859,36.5106 34.04366,36.5106 z"
           style="font-style:normal;font-variant:normal;font-weight:bold;font-stretch:normal;font-family:'Magdelin Alt';-inkscape-font-specification:'Magdelin Alt Bold';fill:#fe5f55;fill-opacity:1;stroke-width:10.27888298"
           id="path1304" />
        <path
           inkscape:connector-curvature="0"
           d="m 421.86351,696.86467 c 0,-21.709 -12.66359,-35.85274 -32.39904,-35.85274 -20.22884,0 -34.04366,14.63713 -34.04366,36.34613 0,22.20239 13.97928,36.67506 36.34613,36.67506 11.84127,0 22.86023,-4.11156 28.78087,-9.70327 l -8.88096,-13.32143 c -4.27601,3.4537 -10.52557,5.75617 -17.92637,5.75617 -9.86772,0 -15.6239,-4.44048 -17.43298,-12.99251 h 45.55601 z m -32.39904,-18.58422 c 6.41402,0 10.8545,4.27602 12.33466,12.1702 H 376.3075 c 1.64462,-7.72972 6.41402,-12.1702 13.15697,-12.1702 z"
           style="font-style:normal;font-variant:normal;font-weight:bold;font-stretch:normal;font-family:'Magdelin Alt';-inkscape-font-specification:'Magdelin Alt Bold';fill:#fe5f55;fill-opacity:1;stroke-width:10.27888298"
           id="path1306" />
        <path
           inkscape:connector-curvature="0"
           d="m 507.71222,661.01193 c -6.90741,0 -12.82805,2.30247 -17.26852,6.90741 v -52.62788 l -20.06438,3.28924 v 107.22931 c 5.92063,4.60494 18.25529,8.22311 29.60318,8.22311 23.18916,0 36.51059,-14.8016 36.51059,-37.66183 0,-21.05115 -11.51235,-35.35936 -28.78087,-35.35936 z m -7.07187,54.10804 c -2.79586,0 -6.57849,-0.65785 -10.19665,-1.97354 V 687.6548 c 2.46693,-4.76941 7.07187,-7.72972 12.00573,-7.72972 8.05865,0 13.65036,7.07187 13.65036,17.59744 0,10.52558 -5.75618,17.59745 -15.45944,17.59745 z"
           style="font-style:normal;font-variant:normal;font-weight:bold;font-stretch:normal;font-family:'Magdelin Alt';-inkscape-font-specification:'Magdelin Alt Bold';fill:#fe5f55;fill-opacity:1;stroke-width:10.27888298"
           id="path1308" />
        <path
           inkscape:connector-curvature="0"
           d="m 591.09399,662.98548 -13.4859,44.89816 -14.14374,-45.55601 -21.05115,3.28924 25.1627,69.8964 -2.30247,5.59172 c -3.28924,8.2231 -9.37434,13.32143 -18.58422,16.44621 l 8.88096,17.59745 c 13.65036,-4.7694 23.0247,-13.81482 27.7941,-27.62964 l 29.27426,-84.53353 z"
           style="font-style:normal;font-variant:normal;font-weight:bold;font-stretch:normal;font-family:'Magdelin Alt';-inkscape-font-specification:'Magdelin Alt Bold';fill:#fe5f55;fill-opacity:1;stroke-width:10.27888298"
           id="path1310" />
      </g>
    </g>
    <g
       aria-label="www.dcreative.nl"
       style="font-style:normal;font-variant:normal;font-weight:normal;font-stretch:normal;font-size:69.53686523px;line-height:1.25;font-family:'Magdelin Alt';-inkscape-font-specification:'Magdelin Alt';font-variant-ligatures:normal;font-variant-caps:normal;font-variant-numeric:normal;font-feature-settings:normal;text-align:end;letter-spacing:0px;word-spacing:0px;writing-mode:lr-tb;text-anchor:end;fill:#fe5f55;fill-opacity:1;stroke:none;stroke-width:4.34605408"
       id="text1156-1"
       transform="matrix(0.81471473,0,0,0.81471473,124.45835,113.56502)">
      <path
         inkscape:connector-curvature="0"
         d="m 1380.2248,939.08675 -6.9537,23.71207 -7.3014,-23.71207 h -4.3113 l -7.0927,23.71207 -7.1623,-23.99021 -4.7981,0.97351 9.1789,28.51012 h 5.0762 l 6.9537,-22.73856 6.8841,22.73856 h 5.0762 l 9.3875,-29.20549 z"
         style="font-style:normal;font-variant:normal;font-weight:normal;font-stretch:normal;font-family:'Magdelin Alt';-inkscape-font-specification:'Magdelin Alt';stroke-width:4.34605408"
         id="path1313" />
      <path
         inkscape:connector-curvature="0"
         d="m 1426.8838,939.08675 -6.9536,23.71207 -7.3014,-23.71207 h -4.3113 l -7.0928,23.71207 -7.1623,-23.99021 -4.798,0.97351 9.1789,28.51012 h 5.0762 l 6.9536,-22.73856 6.8842,22.73856 h 5.0762 l 9.3875,-29.20549 z"
         style="font-style:normal;font-variant:normal;font-weight:normal;font-stretch:normal;font-family:'Magdelin Alt';-inkscape-font-specification:'Magdelin Alt';stroke-width:4.34605408"
         id="path1315" />
      <path
         inkscape:connector-curvature="0"
         d="m 1473.5429,939.08675 -6.9537,23.71207 -7.3013,-23.71207 h -4.3113 l -7.0928,23.71207 -7.1623,-23.99021 -4.798,0.97351 9.1788,28.51012 h 5.0762 l 6.9537,-22.73856 6.8842,22.73856 h 5.0762 l 9.3874,-29.20549 z"
         style="font-style:normal;font-variant:normal;font-weight:normal;font-stretch:normal;font-family:'Magdelin Alt';-inkscape-font-specification:'Magdelin Alt';stroke-width:4.34605408"
         id="path1317" />
      <path
         inkscape:connector-curvature="0"
         d="m 1482.9998,968.77899 c 2.2252,0 3.6159,-1.46027 3.6159,-3.61591 0,-2.08611 -1.3907,-3.54638 -3.6159,-3.54638 -2.1557,0 -3.6159,1.46027 -3.6159,3.54638 0,2.15564 1.4602,3.61591 3.6159,3.61591 z"
         style="font-style:normal;font-variant:normal;font-weight:normal;font-stretch:normal;font-family:'Magdelin Alt';-inkscape-font-specification:'Magdelin Alt';stroke-width:4.34605408"
         id="path1319" />
      <path
         inkscape:connector-curvature="0"
         d="m 1513.2481,920.03365 v 20.30477 c -2.0861,-1.3212 -4.9371,-2.08611 -7.9272,-2.08611 -8.2053,0 -13.5597,6.11924 -13.5597,15.43718 0,9.31794 5.2153,15.43719 12.6557,15.43719 3.755,0 7.0928,-1.8775 9.318,-5.14573 l 0.9039,4.31129 h 3.3378 v -49.16257 z m -7.8577,44.57313 c -5.2848,0 -8.8311,-4.31128 -8.8311,-10.91729 0,-6.606 3.8245,-10.91728 9.5265,-10.91728 2.5729,0 5.3544,0.97351 7.1623,2.50332 v 14.11599 c -1.8079,3.19869 -4.8676,5.21526 -7.8577,5.21526 z"
         style="font-style:normal;font-variant:normal;font-weight:normal;font-stretch:normal;font-family:'Magdelin Alt';-inkscape-font-specification:'Magdelin Alt';stroke-width:4.34605408"
         id="path1321" />
      <path
         inkscape:connector-curvature="0"
         d="m 1539.8807,969.12668 c 5.8411,0 10.2219,-2.99009 12.0994,-7.99674 l -4.5894,-1.46027 c -1.2517,3.05962 -3.9636,4.93711 -7.51,4.93711 -5.2848,0 -8.7616,-4.31128 -8.7616,-10.91729 0,-6.606 3.4768,-10.91728 8.7616,-10.91728 3.4768,0 6.1192,1.87749 7.3709,4.93711 l 4.5894,-1.46027 c -1.8774,-5.00665 -6.1887,-7.99674 -11.9603,-7.99674 -8.2749,0 -13.6292,6.11924 -13.6292,15.43718 0,9.31794 5.3543,15.43719 13.6292,15.43719 z"
         style="font-style:normal;font-variant:normal;font-weight:normal;font-stretch:normal;font-family:'Magdelin Alt';-inkscape-font-specification:'Magdelin Alt';stroke-width:4.34605408"
         id="path1323" />
      <path
         inkscape:connector-curvature="0"
         d="m 1573.5365,938.32185 c -3.6854,0 -7.0232,2.29471 -9.457,6.39739 l -0.7649,-5.63249 h -3.6855 v 29.20549 h 4.7285 v -18.49681 c 2.0862,-4.10267 5.2848,-6.39739 8.6922,-6.39739 1.043,0 2.1556,0.20861 2.851,0.48676 l 0.2781,-5.14573 c -0.6258,-0.27815 -1.6689,-0.41722 -2.6424,-0.41722 z"
         style="font-style:normal;font-variant:normal;font-weight:normal;font-stretch:normal;font-family:'Magdelin Alt';-inkscape-font-specification:'Magdelin Alt';stroke-width:4.34605408"
         id="path1325" />
      <path
         inkscape:connector-curvature="0"
         d="m 1606.6359,952.99413 c 0,-8.90072 -5.0762,-14.74182 -12.8643,-14.74182 -8.2053,0 -13.6292,6.18878 -13.6292,15.36765 0,9.38747 5.5629,15.50672 14.5332,15.50672 5.0067,0 9.2484,-1.94703 11.4736,-4.45036 l -2.712,-3.33777 c -1.7384,1.8775 -4.798,3.33777 -8.6921,3.33777 -5.6324,0 -9.1788,-3.54638 -9.7351,-9.45701 h 21.6259 z m -12.8643,-10.361 c 4.3808,0 7.3709,3.1987 7.9272,8.41396 h -16.6193 c 0.8345,-5.21526 4.1027,-8.41396 8.6921,-8.41396 z"
         style="font-style:normal;font-variant:normal;font-weight:normal;font-stretch:normal;font-family:'Magdelin Alt';-inkscape-font-specification:'Magdelin Alt';stroke-width:4.34605408"
         id="path1327" />
      <path
         inkscape:connector-curvature="0"
         d="m 1626.0366,938.25231 c -4.5894,0 -10.0133,1.8775 -12.6557,4.38082 l 2.3643,3.68546 c 2.4338,-2.15565 6.3974,-3.61592 9.5961,-3.61592 4.0331,0 6.3973,2.29472 6.3973,5.91063 v 2.22518 l -7.7881,0.62583 c -6.8146,0.62584 -11.404,3.47685 -11.404,9.24841 0,5.14573 3.894,8.41396 9.457,8.41396 4.0331,0 7.7186,-1.80796 10.0133,-4.65897 l 0.7649,3.82453 h 3.6855 V 947.8484 c 0,-5.77156 -3.8246,-9.59609 -10.4306,-9.59609 z m -2.9901,26.49355 c -3.4073,0 -5.702,-1.52981 -5.702,-4.17222 0,-3.05962 2.6424,-4.45036 7.3709,-4.93711 l 7.0232,-0.62583 v 5.35433 c -2.0861,2.71194 -5.4238,4.38083 -8.6921,4.38083 z"
         style="font-style:normal;font-variant:normal;font-weight:normal;font-stretch:normal;font-family:'Magdelin Alt';-inkscape-font-specification:'Magdelin Alt';stroke-width:4.34605408"
         id="path1329" />
      <path
         inkscape:connector-curvature="0"
         d="m 1662.1957,963.21605 c -1.5993,0.90397 -3.4768,1.39073 -5.0762,1.39073 -2.4338,0 -4.0331,-1.52981 -4.0331,-3.9636 v -17.38422 h 9.3874 v -4.17221 h -9.3874 v -11.33451 l -4.7285,1.04306 v 10.29145 h -5.3544 v 4.17221 h 5.3544 v 18.2882 c 0,4.65897 2.9901,7.50998 7.649,7.50998 2.851,0 5.9107,-0.83444 7.8577,-2.0861 z"
         style="font-style:normal;font-variant:normal;font-weight:normal;font-stretch:normal;font-family:'Magdelin Alt';-inkscape-font-specification:'Magdelin Alt';stroke-width:4.34605408"
         id="path1331" />
      <path
         inkscape:connector-curvature="0"
         d="m 1673.1129,930.25557 c 2.0166,0 3.2682,-1.25166 3.2682,-3.19869 0,-2.01657 -1.2516,-3.1987 -3.2682,-3.1987 -1.947,0 -3.1987,1.18213 -3.1987,3.1987 0,1.94703 1.2517,3.19869 3.1987,3.19869 z m -2.3643,38.03667 h 4.7286 v -29.20549 h -4.7286 z"
         style="font-style:normal;font-variant:normal;font-weight:normal;font-stretch:normal;font-family:'Magdelin Alt';-inkscape-font-specification:'Magdelin Alt';stroke-width:4.34605408"
         id="path1333" />
      <path
         inkscape:connector-curvature="0"
         d="m 1704.1958,939.08675 -8.2749,24.1293 -8.3444,-24.40744 -4.9371,0.97351 10.6391,28.51012 h 5.0762 l 10.8478,-29.20549 z"
         style="font-style:normal;font-variant:normal;font-weight:normal;font-stretch:normal;font-family:'Magdelin Alt';-inkscape-font-specification:'Magdelin Alt';stroke-width:4.34605408"
         id="path1335" />
      <path
         inkscape:connector-curvature="0"
         d="m 1739.7291,952.99413 c 0,-8.90072 -5.0762,-14.74182 -12.8643,-14.74182 -8.2054,0 -13.6293,6.18878 -13.6293,15.36765 0,9.38747 5.563,15.50672 14.5332,15.50672 5.0067,0 9.2484,-1.94703 11.4736,-4.45036 l -2.7119,-3.33777 c -1.7384,1.8775 -4.7981,3.33777 -8.6921,3.33777 -5.6325,0 -9.1789,-3.54638 -9.7352,-9.45701 h 21.626 z m -12.8643,-10.361 c 4.3808,0 7.3709,3.1987 7.9272,8.41396 h -16.6193 c 0.8344,-5.21526 4.1026,-8.41396 8.6921,-8.41396 z"
         style="font-style:normal;font-variant:normal;font-weight:normal;font-stretch:normal;font-family:'Magdelin Alt';-inkscape-font-specification:'Magdelin Alt';stroke-width:4.34605408"
         id="path1337" />
      <path
         inkscape:connector-curvature="0"
         d="m 1749.9509,968.77899 c 2.2252,0 3.6159,-1.46027 3.6159,-3.61591 0,-2.08611 -1.3907,-3.54638 -3.6159,-3.54638 -2.1556,0 -3.6159,1.46027 -3.6159,3.54638 0,2.15564 1.4603,3.61591 3.6159,3.61591 z"
         style="font-style:normal;font-variant:normal;font-weight:normal;font-stretch:normal;font-family:'Magdelin Alt';-inkscape-font-specification:'Magdelin Alt';stroke-width:4.34605408"
         id="path1339" />
      <path
         inkscape:connector-curvature="0"
         d="m 1777.7656,938.25231 c -3.9636,0 -7.9968,2.15564 -10.8478,5.63249 l -0.7649,-4.79805 h -3.6159 v 29.20549 h 4.7285 v -20.09616 c 2.2252,-3.26823 5.6325,-5.42387 8.9007,-5.42387 3.6159,0 6.0497,2.29471 6.0497,5.91063 v 19.6094 h 4.7285 v -20.9306 c 0,-5.49341 -3.6854,-9.10933 -9.1788,-9.10933 z"
         style="font-style:normal;font-variant:normal;font-weight:normal;font-stretch:normal;font-family:'Magdelin Alt';-inkscape-font-specification:'Magdelin Alt';stroke-width:4.34605408"
         id="path1341" />
      <path
         inkscape:connector-curvature="0"
         d="m 1796.8185,968.29224 h 4.7286 v -49.16257 l -4.7286,0.90398 z"
         style="font-style:normal;font-variant:normal;font-weight:normal;font-stretch:normal;font-family:'Magdelin Alt';-inkscape-font-specification:'Magdelin Alt';stroke-width:4.34605408"
         id="path1343" />
    </g>
  </g>
</svg>
